<?xml version="1.0" encoding="UTF-8"?>
<svg width="32" height="32" viewBox="0 0 24 24" fill="none" xmlns="http://www.w3.org/2000/svg">
    <path d="M19 3H5C3.895 3 3 3.895 3 5V19C3 20.105 3.895 21 5 21H19C20.105 21 21 20.105 21 19V5C21 3.895 20.105 3 19 3ZM9 17H6.477V9H9V17ZM7.694 8.056C6.923 8.056 6.408 7.523 6.408 6.863C6.408 6.187 6.942 5.672 7.732 5.672C8.503 5.672 9 6.187 9 6.863C9 7.523 8.503 8.056 7.694 8.056ZM18 17H15.558V12.726C15.558 11.325 14.907 11.024 14.442 11.024C13.958 11.024 13.012 11.225 13.012 12.726C13.012 12.926 13.012 17 13.012 17H10.489V9H13.012V10.041C13.321 9.357 14.338 9 15.552 9C16.766 9 18 9.966 18 12.726V17Z" fill="#4a90e2"/>
</svg> 